<svg xmlns="http://www.w3.org/2000/svg" viewBox="0 0 96 96" role="img" aria-labelledby="logoTitle logoDesc">
  <title id="logoTitle">WeChat Daily Comic Gallery logo</title>
  <desc id="logoDesc">A chat bubble and comic panel mark for a daily group chat comic gallery.</desc>
  <defs>
    <linearGradient id="logoBg" x1="12" y1="10" x2="86" y2="88" gradientUnits="userSpaceOnUse">
      <stop offset="0" stop-color="#172554"/>
      <stop offset="0.46" stop-color="#2e1065"/>
      <stop offset="1" stop-color="#111827"/>
    </linearGradient>
    <linearGradient id="logoPanel" x1="23" y1="24" x2="73" y2="73" gradientUnits="userSpaceOnUse">
      <stop offset="0" stop-color="#fef3c7"/>
      <stop offset="0.48" stop-color="#ffffff"/>
      <stop offset="1" stop-color="#dbeafe"/>
    </linearGradient>
    <linearGradient id="logoAccent" x1="24" y1="18" x2="78" y2="76" gradientUnits="userSpaceOnUse">
      <stop offset="0" stop-color="#fbbf24"/>
      <stop offset="0.55" stop-color="#34d399"/>
      <stop offset="1" stop-color="#38bdf8"/>
    </linearGradient>
    <filter id="logoShadow" x="-20%" y="-20%" width="140%" height="150%" color-interpolation-filters="sRGB">
      <feDropShadow dx="0" dy="10" stdDeviation="7" flood-color="#000000" flood-opacity="0.34"/>
      <feDropShadow dx="0" dy="0" stdDeviation="10" flood-color="#38bdf8" flood-opacity="0.16"/>
    </filter>
  </defs>
  <rect x="6" y="6" width="84" height="84" rx="22" fill="url(#logoBg)"/>
  <path d="M19 25C19 18.373 24.373 13 31 13H65C71.627 13 77 18.373 77 25V58C77 64.627 71.627 70 65 70H44.5L30.2 80C28.05 81.505 25 79.967 25 77.342V68.9C21.409 66.836 19 62.96 19 58V25Z" fill="url(#logoPanel)" filter="url(#logoShadow)"/>
  <path d="M19 25C19 18.373 24.373 13 31 13H65C71.627 13 77 18.373 77 25V58C77 64.627 71.627 70 65 70H44.5L30.2 80C28.05 81.505 25 79.967 25 77.342V68.9C21.409 66.836 19 62.96 19 58V25Z" fill="none" stroke="#020617" stroke-width="4" stroke-linejoin="round"/>
  <path d="M31 27H65" stroke="#020617" stroke-width="4" stroke-linecap="round"/>
  <path d="M31 44H65" stroke="#020617" stroke-width="4" stroke-linecap="round"/>
  <path d="M48 27V62" stroke="#020617" stroke-width="4" stroke-linecap="round"/>
  <path d="M31 62H58" stroke="#020617" stroke-width="4" stroke-linecap="round"/>
  <circle cx="36" cy="35.5" r="3.5" fill="#34d399"/>
  <circle cx="60" cy="35.5" r="3.5" fill="#f59e0b"/>
  <path d="M72.5 16L75.6 23.4L83 26.5L75.6 29.6L72.5 37L69.4 29.6L62 26.5L69.4 23.4L72.5 16Z" fill="url(#logoAccent)" stroke="#020617" stroke-width="3" stroke-linejoin="round"/>
  <path d="M21 21C25 15 30.5 12 38 12" fill="none" stroke="#fef3c7" stroke-width="2.5" stroke-linecap="round" opacity="0.72"/>
</svg>
